<svg width="195" height="83" viewBox="0 0 195 83" fill="none" xmlns="http://www.w3.org/2000/svg">
<path d="M41.7858 81.1659L43.0485 74.6774L45.102 79.3661L47.2346 74.6774L48.3661 81.1659H47.4404L46.8602 77.5243L45.0883 81.4402L43.3642 77.5211L42.719 81.1675H41.7858V81.1659Z" fill="white"/>
<path d="M51.0543 75.1371V81.1675H50.1491V75.1371H51.0543Z" fill="white"/>
<path d="M54.015 77.5397L56.3474 75.1368H57.5559L54.846 77.8653L57.5683 81.1672H56.3598L54.204 78.4823L54.0137 78.6709V81.1672H53.1085V75.1368H54.0137V77.5397H54.015Z" fill="white"/>
<path d="M59.8835 77.5397L62.2158 75.1368H63.4215L60.7116 77.8653L63.4384 81.1672H62.2267L60.0708 78.4823L59.8851 78.6709V81.1672H58.9799V75.1368H59.8851V77.5397H59.8835Z" fill="white"/>
<path d="M64.1518 78.1226C64.1518 77.2766 64.4628 76.5442 65.0787 75.9318C65.6946 75.327 66.4361 75.0216 67.2995 75.0216C68.1522 75.0216 68.8828 75.3271 69.4971 75.9411C70.1098 76.5567 70.4132 77.2953 70.4132 78.1538C70.4132 79.0264 70.1082 79.7588 69.4892 80.3632C68.8701 80.9708 68.1226 81.2734 67.2514 81.2734C66.4791 81.2734 65.7842 81.0055 65.1682 80.4646C64.4908 79.8695 64.1518 79.0902 64.1518 78.1226ZM65.0618 78.1319C65.0618 78.7973 65.2846 79.3459 65.7303 79.7742C66.1713 80.2044 66.6805 80.4209 67.2626 80.4209C67.8893 80.4209 68.4202 80.2012 68.8519 79.7649C69.2852 79.3193 69.5003 78.7848 69.5003 78.1473C69.5003 77.5038 69.2852 76.9632 68.8627 76.5298C68.437 76.0935 67.911 75.8737 67.2843 75.8737C66.662 75.8737 66.1375 76.0935 65.7074 76.5298C65.2769 76.9632 65.0618 77.4993 65.0618 78.1319Z" fill="white"/>
<path d="M74.7949 81.1659V74.7227L79.164 79.3257V75.1355H80.0692V81.5307L75.6986 76.9401V81.1662L74.7949 81.1659Z" fill="white"/>
<path d="M83.0219 75.1371V81.1675H82.1179V75.1371H83.0219Z" fill="white"/>
<path d="M88.4265 76.0284L87.6958 76.4679C87.5566 76.2263 87.4266 76.0691 87.3042 75.9972C87.1711 75.9148 87.0057 75.8724 86.8011 75.8724C86.5504 75.8724 86.3429 75.9456 86.1776 76.0858C86.009 76.2292 85.9268 76.4037 85.9268 76.6203C85.9268 76.9132 86.1451 77.1486 86.5829 77.3293L87.1771 77.5753C87.663 77.7765 88.0173 78.0148 88.2448 78.3013C88.4676 78.5881 88.5807 78.9388 88.5807 79.3517C88.5807 79.9048 88.3965 80.3645 88.0298 80.7277C87.6614 81.0937 87.2017 81.2746 86.6507 81.2746C86.1323 81.2746 85.7022 81.1187 85.3648 80.8104C85.0321 80.4989 84.8247 80.0594 84.7412 79.4983L85.656 79.2943C85.6977 79.6465 85.7704 79.8926 85.8742 80.0299C86.0568 80.2884 86.3292 80.4225 86.6899 80.4225C86.9716 80.4225 87.2067 80.3276 87.3925 80.1357C87.5751 79.9442 87.671 79.7027 87.671 79.4126C87.671 79.2959 87.6541 79.1868 87.62 79.0915C87.5875 78.9965 87.5365 78.9029 87.4699 78.8204C87.4017 78.7408 87.3122 78.6645 87.2067 78.5881C87.0952 78.5179 86.9684 78.4511 86.8167 78.3841L86.2378 78.1425C85.4192 77.7951 85.0076 77.2824 85.0076 76.6138C85.0076 76.1618 85.1793 75.7816 85.526 75.4762C85.8679 75.1676 86.2983 75.0149 86.8104 75.0149C87.4992 75.0155 88.0377 75.3537 88.4265 76.0284Z" fill="white"/>
<path d="M93.6711 76.0284L92.9376 76.4679C92.7983 76.2263 92.6699 76.0691 92.546 75.9972C92.4176 75.9148 92.2503 75.8724 92.0477 75.8724C91.7953 75.8724 91.585 75.9456 91.4209 76.0858C91.2568 76.2292 91.1717 76.4037 91.1717 76.6203C91.1717 76.9132 91.39 77.1486 91.8265 77.3293L92.4208 77.5753C92.9083 77.7765 93.2642 78.0148 93.4901 78.3013C93.7144 78.5881 93.8275 78.9388 93.8275 79.3517C93.8275 79.9048 93.6433 80.3645 93.275 80.7277C92.9083 81.0937 92.4456 81.2746 91.896 81.2746C91.3776 81.2746 90.9474 81.1187 90.6116 80.8104C90.2773 80.4989 90.0683 80.0594 89.9864 79.4983L90.9025 79.2943C90.9411 79.6465 91.0169 79.8926 91.1176 80.0299C91.3049 80.2884 91.5758 80.4225 91.9349 80.4225C92.2165 80.4225 92.4501 80.3276 92.6358 80.1357C92.8232 79.9442 92.9143 79.7027 92.9143 79.4126C92.9143 79.2959 92.9003 79.1868 92.8678 79.0915C92.8353 78.9965 92.7843 78.9029 92.7161 78.8204C92.6495 78.7408 92.5613 78.6645 92.4501 78.5881C92.3402 78.5179 92.2133 78.4511 92.0617 78.3841L91.4859 78.1425C90.6642 77.7951 90.2541 77.2824 90.2541 76.6138C90.2541 76.1618 90.4274 75.7816 90.7725 75.4762C91.1144 75.1676 91.5449 75.0149 92.0556 75.0149C92.7426 75.0155 93.2843 75.3537 93.6711 76.0284Z" fill="white"/>
<path d="M96.4291 75.1371V81.1675H95.5252V75.1371H96.4291Z" fill="white"/>
<path d="M98.4782 81.1659V74.7227L102.849 79.3257V75.1355H103.753V81.5307L99.3837 76.9401V81.1662L98.4782 81.1659Z" fill="white"/>
<path d="M109.11 75.9895H106.711V77.4371H109.04V78.2939H106.711V80.3087H109.11V81.1656H105.801V75.1352H109.11V75.9895Z" fill="white"/>
<path d="M110.924 81.1659V74.7227L115.295 79.3257V75.1355H116.199V81.5307L111.83 76.9401V81.1662L110.924 81.1659Z" fill="white"/>
<path d="M122.52 79.1823L121.717 81.1659H121.329L123.839 74.9315L126.343 81.1659H125.951L125.15 79.1823H122.52ZM123.837 75.91L122.661 78.8239H125.009L123.837 75.91Z" fill="white"/>
<path d="M130.498 81.1659H130.059L128.104 78.3097H127.911V81.1659H127.532V75.1355H128.277C128.765 75.1355 129.238 75.1416 129.644 75.4349C130.074 75.7403 130.251 76.2202 130.251 76.7345C130.251 77.7816 129.528 78.327 128.534 78.31L130.498 81.1659ZM128.398 77.9513C128.771 77.9513 129.144 77.9327 129.447 77.6709C129.731 77.4387 129.865 77.0787 129.865 76.7159C129.865 76.2702 129.663 75.8246 129.232 75.6299C128.916 75.4772 128.508 75.4929 128.156 75.4929H127.909V77.9504H128.398V77.9513H128.398Z" fill="white"/>
<path d="M133.08 81.1659H132.699V75.4923H131.148V75.1355H134.626V75.4923H133.08V81.1659Z" fill="white"/>
<path d="M136.203 81.1659H135.824V75.1355H136.203V81.1659Z" fill="white"/>
<path d="M140.693 76.1233C140.423 75.6931 140.041 75.4127 139.478 75.4127C138.832 75.4127 138.345 75.9315 138.345 76.5628C138.345 77.1955 138.947 77.4605 139.428 77.6956L140.57 78.294C141.025 78.5808 141.253 78.95 141.253 79.4906C141.253 80.4909 140.349 81.2451 139.38 81.2451C138.546 81.2451 137.895 80.7264 137.618 79.9503L137.952 79.7976C138.204 80.4364 138.673 80.8868 139.394 80.8868C140.185 80.8868 140.874 80.2618 140.874 79.4611C140.874 78.7816 140.185 78.4935 139.667 78.2378L138.585 77.6613C138.189 77.4136 137.964 77.0598 137.964 76.583C137.964 75.6854 138.6 75.0544 139.501 75.0544C140.101 75.0544 140.674 75.3784 140.96 75.9004L140.693 76.1233Z" fill="white"/>
<path d="M143.949 81.1659H143.569V75.4923H142.017V75.1355H145.499V75.4923H143.949V81.1659Z" fill="white"/>
<path d="M147.073 81.1659H146.689V75.1355H147.073V81.1659Z" fill="white"/>
<path d="M153.657 76.3649C153.194 75.7977 152.385 75.4127 151.645 75.4127C150.153 75.4127 148.918 76.7091 148.918 78.1894C148.918 78.8936 149.222 79.556 149.723 80.053C150.221 80.5329 150.938 80.8868 151.645 80.8868C152.334 80.8868 153.21 80.5111 153.657 79.9657V80.4925C153.094 80.9663 152.397 81.2467 151.659 81.2467C149.994 81.2467 148.541 79.8489 148.541 78.1582C148.541 76.4457 149.971 75.0544 151.671 75.0544C152.393 75.0544 153.123 75.3412 153.657 75.8381L153.657 76.3649Z" fill="white"/>
<path d="M158.026 75.1371H159.108C159.98 75.1371 160.672 75.2773 161.33 75.8946C161.958 76.4868 162.287 77.2956 162.287 78.1573C162.287 78.9895 161.966 79.7809 161.366 80.3639C160.703 81.0074 159.999 81.1662 159.109 81.1662H158.027V75.1375H158.026V75.1371ZM159.1 80.8027C159.886 80.8027 160.538 80.6439 161.109 80.0767C161.618 79.5641 161.905 78.8753 161.905 78.157C161.905 77.3902 161.604 76.6703 161.038 76.1483C160.468 75.6296 159.849 75.4923 159.102 75.4923H158.409V80.8027H159.1Z" fill="white"/>
<path d="M164.142 81.1659H163.763V75.1355H164.142V81.1659Z" fill="white"/>
<path d="M168.915 81.1659H168.477L166.522 78.3097H166.33V81.1659H165.951V75.1355H166.697C167.18 75.1355 167.658 75.1416 168.064 75.4349C168.494 75.7403 168.667 76.2202 168.667 76.7345C168.667 77.7816 167.943 78.327 166.951 78.31L168.915 81.1659ZM166.816 77.9513C167.191 77.9513 167.562 77.9327 167.866 77.6709C168.151 77.4387 168.283 77.0787 168.283 76.7159C168.283 76.2702 168.079 75.8246 167.65 75.6299C167.33 75.4772 166.924 75.4929 166.575 75.4929H166.329V77.9504H166.816V77.9513H166.816Z" fill="white"/>
<path d="M170.648 75.4923V77.6831H173.064V78.0463H170.648V80.8027H173.128V81.1659H170.263V75.1355H173.128V75.4923H170.648Z" fill="white"/>
<path d="M179.471 76.3649C179.008 75.7977 178.199 75.4127 177.461 75.4127C175.969 75.4127 174.734 76.7091 174.734 78.1894C174.734 78.8936 175.037 79.556 175.537 80.053C176.036 80.5329 176.752 80.8868 177.46 80.8868C178.148 80.8868 179.024 80.5111 179.47 79.9657V80.4925C178.906 80.9663 178.215 81.2467 177.473 81.2467C175.808 81.2467 174.353 79.8489 174.353 78.1582C174.353 76.4457 175.782 75.0544 177.484 75.0544C178.205 75.0544 178.939 75.3412 179.47 75.8381V76.3649H179.471Z" fill="white"/>
<path d="M182.372 81.1659H181.989V75.4923H180.438V75.1355H183.921V75.4923H182.372V81.1659Z" fill="white"/>
<path d="M190.564 78.1477C190.564 79.8477 189.14 81.2454 187.458 81.2454C185.772 81.2454 184.351 79.8477 184.351 78.1477C184.351 76.4538 185.764 75.0531 187.458 75.0531C189.141 75.0528 190.564 76.4538 190.564 78.1477ZM184.733 78.1477C184.733 79.6372 185.963 80.8855 187.458 80.8855C188.946 80.8855 190.181 79.6279 190.181 78.1477C190.181 76.6581 188.944 75.413 187.458 75.413C185.963 75.4127 184.733 76.6578 184.733 78.1477Z" fill="white"/>
<path d="M195 81.1659H194.565L192.606 78.3097H192.416V81.1659H192.036V75.1355H192.782C193.27 75.1355 193.743 75.1416 194.149 75.4349C194.579 75.7403 194.752 76.2202 194.752 76.7345C194.752 77.7816 194.03 78.327 193.036 78.31L195 81.1659ZM192.904 77.9513C193.276 77.9513 193.65 77.9327 193.95 77.6709C194.238 77.4387 194.371 77.0787 194.371 76.7159C194.371 76.2702 194.169 75.8246 193.738 75.6299C193.418 75.4772 193.011 75.4929 192.663 75.4929H192.415V77.9504H192.904V77.9513H192.904Z" fill="white"/>
<path d="M194.39 1.03174H194.139C193.822 1.03174 193.574 1.28583 193.574 1.60985V38.0416L170.611 1.19054C170.506 1.05195 170.283 0.765147 169.919 0.765147H169.733C169.444 0.765147 169.141 0.970788 169.141 1.35256V28.1887H161.777C162.624 25.9151 163.09 23.4532 163.09 20.8867C163.09 9.36813 153.786 0 142.349 0C130.909 0 121.603 9.36813 121.603 20.8867C121.603 28.4098 125.574 35.0154 131.52 38.6942V69.3468C131.52 69.7847 131.838 70.1026 132.271 70.1026H153.578C154.018 70.1026 154.328 69.7911 154.328 69.3468V68.2685C154.328 67.8508 153.99 67.5111 153.578 67.5111H134.097V49.5072H149.713C150.13 49.5072 150.448 49.1848 150.448 48.7594V47.6686C150.448 47.2371 150.13 46.9144 149.713 46.9144H134.097V40.0441C136.626 41.1535 139.416 41.7724 142.349 41.7724C150.231 41.7724 157.101 37.3204 160.609 30.7822H171.487V69.3333C171.487 69.7539 171.801 70.0718 172.219 70.0718H173.326C173.753 70.0718 174.061 69.7616 174.061 69.3333V30.7816H184.922C185.34 30.7816 185.646 30.4592 185.646 30.0148V28.9398C185.646 28.533 185.31 28.1903 184.911 28.1903H170.534V3.69483L193.495 40.5488C193.633 40.8045 193.799 40.9726 194.169 40.9726H194.172L194.359 40.971C194.734 40.971 194.967 40.7419 194.967 40.3727V1.60985C194.964 1.2685 194.729 1.03174 194.39 1.03174ZM160.296 28.1887H160.26L160.231 28.3617C159.27 30.6898 157.859 32.8277 156.033 34.6631C152.378 38.3422 147.516 40.3711 142.348 40.3711C139.443 40.3711 136.642 39.7323 134.097 38.5216V30.7816H153.592C154.011 30.7816 154.328 30.4592 154.328 30.0338V28.9305C154.328 28.5099 154.013 28.1903 153.592 28.1903H132.272C131.828 28.1903 131.521 28.5067 131.521 28.9555V37.0397C130.506 36.3477 129.549 35.5563 128.664 34.665C125.01 30.9859 122.994 26.0916 122.994 20.887C122.994 15.6824 125.01 10.7897 128.664 7.10734C132.32 3.42823 137.181 1.401 142.35 1.401C147.518 1.401 152.378 3.42823 156.034 7.10734C159.69 10.7893 161.7 15.6824 161.7 20.887C161.698 23.4314 161.217 25.8997 160.296 28.1887ZM71.1333 20.8867C71.1333 9.40855 61.8615 0.0699335 50.4617 0.0699335C39.0634 0.0699335 29.7885 9.40855 29.7885 20.8867C29.7885 30.1114 35.7809 37.9511 44.0512 40.6717L37.3855 56.2463C35.1647 51.4299 31.0031 47.7601 25.9764 46.1845C28.6041 44.3569 30.1998 41.3367 30.1998 38.0753C30.1998 34.538 28.3317 31.4357 25.5415 29.6998C25.5555 29.4489 25.5663 29.1996 25.5663 28.9504C25.5663 23.2315 21.5472 18.2794 16.0824 17.0735C18.9175 15.6041 20.7672 12.6074 20.7685 9.35401C20.7669 4.57162 16.9025 0.683974 12.156 0.683974H0.564926C0.247574 0.682691 0 0.938064 0 1.2653V40.5799C0 40.9039 0.23674 41.141 0.563333 41.141H8.58478V68.3182C8.58478 68.7327 8.91137 69.0567 9.32623 69.0567H10.4264C10.8397 69.0567 11.1631 68.7327 11.1631 68.3182V47.9301H20.4132C24.7201 47.9301 28.7705 49.6192 31.8175 52.6843C34.8649 55.7525 36.5408 59.8304 36.544 64.1685C36.5408 68.5049 34.8649 72.5831 31.8175 75.6511C28.8431 78.6446 24.895 80.3289 20.7086 80.4021C20.2969 80.4021 19.9642 80.7402 19.9642 81.1531V82.2564C19.9642 82.6879 20.2768 82.9997 20.7086 82.9997H20.7146C30.8607 82.8377 39.1173 74.3903 39.1188 64.1698C39.1188 62.7393 38.9532 61.301 38.6313 59.8955L40.7964 54.8344H60.1712L66.487 69.521C66.6138 69.7969 66.9373 70.074 67.3072 70.074H68.5562C68.7761 70.074 68.9755 69.965 69.0931 69.7844C69.2122 69.5973 69.2279 69.359 69.1316 69.1469L56.8868 40.6669C65.1517 37.937 71.1333 30.1053 71.1333 20.8867ZM1.22417 1.91527H12.1534C16.2207 1.92457 19.5357 5.26072 19.5417 9.35432C19.5341 13.4463 16.222 16.7825 12.1582 16.7934H1.22417V1.91527ZM9.3275 28.2231C8.89735 28.2231 8.58478 28.5394 8.58478 28.9741V39.9097H1.22417V18.024H13.4936C19.4627 18.0349 24.3301 22.9357 24.3425 28.9488C24.3425 28.9831 24.3364 29.019 24.3364 29.0546C23.1339 28.5218 21.8091 28.2208 20.4132 28.2208H9.3275V28.2231ZM20.4132 45.3357H11.1631V30.8175H20.4132C24.383 30.8236 27.6158 34.0805 27.6234 38.0759C27.6174 42.0727 24.3826 45.3293 20.4132 45.3357ZM59.0573 52.2403H41.9081L46.5757 41.3293C47.8355 41.5709 49.1339 41.7018 50.4617 41.7018C51.7942 41.7018 53.1018 41.5709 54.3648 41.3248L59.0573 52.2403ZM47.139 40.0111L50.4601 32.248L53.7983 40.0082C52.7058 40.1985 51.5915 40.3027 50.4601 40.3027C49.335 40.3024 48.2252 40.1997 47.139 40.0111ZM56.3381 39.3833L51.7725 28.7685C51.6192 28.4069 51.3067 28.1887 50.9367 28.1887L50.4508 28.1903H49.9774C49.6246 28.1903 49.3025 28.4085 49.1556 28.745L44.6008 39.3894C41.7007 38.4606 39.0417 36.8447 36.8257 34.6166C33.1857 30.9484 31.1799 26.0742 31.1767 20.8886C31.1799 15.7026 33.187 10.8269 36.8257 7.1606C40.4673 3.494 45.3098 1.47447 50.4633 1.47447C55.6123 1.47447 60.4564 3.494 64.0964 7.1606C67.7396 10.8272 69.7437 15.7029 69.7437 20.8886C69.7437 26.0746 67.738 30.9503 64.0964 34.6166C61.8861 36.8402 59.2306 38.4545 56.3381 39.3833ZM110.579 40.1279C110.579 40.4583 110.822 40.706 111.147 40.706H111.415C111.747 40.706 111.969 40.4737 111.969 40.1279V2.00863H123.414C123.749 2.00863 123.975 1.77796 123.975 1.43372V1.18445C123.975 0.855619 123.732 0.607941 123.414 0.607941H99.1438C98.8019 0.607941 98.5728 0.90406 98.5728 1.17996V1.44656C98.5728 1.76769 98.8172 2.00894 99.1438 2.00894H110.581V40.1282H110.579V40.1279ZM124.073 67.5188H104.871V28.9757C104.871 28.5378 104.554 28.2074 104.13 28.2074H103.051C102.629 28.2074 102.299 28.5346 102.299 28.9568V69.3667C102.299 69.7981 102.607 70.11 103.036 70.11H124.072C124.506 70.11 124.818 69.7985 124.818 69.3667V68.282C124.818 67.8476 124.498 67.5188 124.073 67.5188ZM85.9424 41.7018C89.1523 41.7018 92.1547 40.4692 94.3972 38.2283C96.6582 35.972 97.9056 32.9288 97.9056 29.6581C97.9165 26.6415 96.7774 24.1776 94.5304 22.3374C92.4905 20.6637 89.8303 19.6182 87.2564 18.6086C86.0571 18.1379 84.9241 17.6923 83.8455 17.1874C80.3014 15.5108 77.9398 13.5692 77.9258 9.54104C77.9258 7.5029 78.7832 5.45386 80.2798 3.92036C81.8181 2.34035 83.8283 1.47093 85.9424 1.47093C89.7634 1.46933 93.0692 4.20268 93.8151 7.99985C93.8957 8.26163 94.1168 8.42364 94.3924 8.42364L94.4418 8.42204L94.4667 8.41883L94.7174 8.37841C94.9851 8.32708 95.2282 8.06048 95.1692 7.69122C94.301 3.27681 90.4195 0.0715376 85.9424 0.0699335C80.8508 0.0792372 76.5423 4.41602 76.5343 9.54104C76.5235 12.4066 77.6658 14.7472 79.9267 16.4941C81.8551 17.9916 84.3592 18.9762 86.7827 19.9268C88.0594 20.4285 89.3858 20.9473 90.5835 21.5318C93.6554 23.0371 96.497 25.0659 96.5126 29.6565C96.5126 35.6214 91.8683 40.2963 85.944 40.3008C81.6865 40.2915 78.0092 37.7327 76.3364 34.0664V28.9757C76.3364 28.5378 76.0162 28.2074 75.5937 28.2074H74.5152C74.0927 28.2074 73.7616 28.5346 73.7616 28.9568V69.3667C73.7616 69.7981 74.071 70.11 74.4999 70.11H95.535C95.9684 70.11 96.2793 69.7985 96.2793 69.3667V68.282C96.2793 67.8473 95.9591 67.5184 95.535 67.5184H76.3368V36.8241C78.5168 39.782 82.0083 41.7018 85.9424 41.7018Z" fill="white"/>
</svg>
