<?xml version="1.0" encoding="UTF-8"?>
<svg id="Layer_1" xmlns="http://www.w3.org/2000/svg" version="1.1" viewBox="0 0 341 141">
  <path fill="#FFFFFF" d="M217.28,18.37q8.91.22,12.75.73,1.89,2.1,2.05,5.11c-.15.98-.31,1.97-.47,2.98q-3.1,1.84-6.1,1.68-.26,1.44-.53,2.91c-.54,2.77-1.23,5.45-2.03,8.15-1.28,4.57-2.06,9.11-2.71,13.8-.25,1.72-.5,3.44-.75,5.17-.13.89-.25,1.77-.38,2.68-2.15,14.97-4.44,29.87-7.66,44.65q.93-.16,1.87-.33c.81-.14,1.63-.28,2.46-.43.8-.14,1.61-.28,2.44-.42,3.77-.56,6.91-.95,10.19,1.19q.96,1.93.74,4.98-1.09,2.88-2.9,3.91c-2.43.8-4.64,1.18-7.18,1.47q-1.41.17-2.85.34c-1.95.22-3.9.44-5.85.66-5.62.66-10.96,1.62-16.42,3.15-2.56.52-4.7.51-7.3.2q-1.81-1.22-2.84-3.15-.1-2.95,1.31-5.94c4.81-2.84,9.76-3.63,15.24-4.21.3-1.94.6-3.88.89-5.82.27-1.76.54-3.52.81-5.27.75-4.9,1.5-9.8,2.24-14.7.77-5.11,1.56-10.23,2.34-15.34.32-2.1.64-4.2.96-6.31.47-3.1.94-6.2,1.43-9.31.14-.92.27-1.85.41-2.8,1.03-6.53,2.81-12.6,5.04-18.81-.77.12-1.54.24-2.33.37-3,.41-5.81.41-8.84.3q-1.55-.04-3.13-.09-2.72-.47-4.49-1.93c-1.53-2.43-1.37-3.92-.81-6.69q1.12-1.56,3.15-2.84c2.67-.25,5.11-.34,7.78-.28.75,0,1.5.01,2.27.02,3.07.04,6.15.13,9.22.2Z"/>
  <path fill="#FFFFFF" d="M247.9,22.05c3.94.29,5.49.8,8.12,3.81,3.67,6.42,2.99,14.65,1.55,21.74-1.73,4.97-4.28,9.63-7.72,13.61q-2.64.84-5.05.74-2.29-1.75-3.79-4.2c.6-3.56,1.93-6.45,3.57-9.64,2.19-4.67,2.95-7.91,2.63-13.07-.88-2.06-1.77-4.11-2.68-6.15.41-3.42.79-4.52,3.36-6.83Z"/>
  <path fill="#FFFFFF" d="M45.86,17.47c2.93,4.23,3.1,7.93,2.77,12.91q-.07,1.12-.14,2.26c-.6,7.48-2.57,14.32-4.92,21.42-1.13,3.48-2.19,6.99-3.25,10.5-1.17,3.84-2.35,7.68-3.54,11.52,7.76-.73,15.48-1.57,23.18-2.79.3-1,.59-2,.89-3.04,1.87-6.26,3.72-12.42,6.3-18.43,2.46-5.95,3.65-12.06,4.78-18.38.83-4.42,1.61-7.92,4.73-11.35q3.08-.28,5.99.31,1.89,2.1,1.87,4.73c-2.01,16.16-6.98,30.88-13.53,45.73.97.38,1.94.76,2.94,1.16q.63,2.29.74,5.05-1.93,2.21-4.2,3.79l-2-.1c-3.18,10.33-5.26,20.16-4,31.02.08.93.15,1.87.23,2.83q-2.1,1.89-5,2.18-3.1-.6-5.17-2.59c-2.39-4.63-1.9-8.49-1.49-13.59.05-.92.1-1.84.15-2.79.35-5.3,1.15-9.77,3.14-14.69-.82.17-1.64.35-2.49.53-1.12.22-2.24.44-3.4.67-1.09.22-2.18.44-3.31.67-5.04.58-9.88.26-14.93-.13-.79,4.11-1.58,8.22-2.36,12.33-.27,1.4-.53,2.79-.8,4.19-.39,2.01-.77,4.03-1.15,6.05-.23,1.21-.46,2.42-.7,3.67q-.63,3.56-.68,7.35-.24,3.16-2.34,5.06-3.49-.31-6.94-1.36c-4.37-7.22-.69-18.14.98-25.8.23-1.08.47-2.16.71-3.28,1.94-8.62,4.59-16.81,7.57-25.11,5.07-14.17,10.06-28.77,10.9-43.89q-2.4-.38-4.99-.26c-.69.96-1.38,1.91-2.09,2.89-.73.95-1.46,1.91-2.22,2.89q-3.15.4-5.99-.31-1.84-3.1-1.6-6.41c1.36-4.38,2.97-6.38,6.44-9.36,6.73-2.79,13.03-2.35,18.92,1.99Z"/>
  <path fill="#FFFFFF" d="M106.39,38.72c2.93,1.31,3.95,2.24,5.17,5.22-.79,2.35-1.44,4.15-3.31,5.83q-3.44,0-6.99-.37-1.89-2.1-2.11-5.06.53-3.04,2.32-4.89,2.36-.94,4.92-.74Z"/>
  <path fill="#FFFFFF" d="M101.3,62.99q2.17,1.55,2.84,3.25c.18,3.36-.91,5.89-2.04,9.05-3.84,11.22-5.67,22.32-5.86,34.2q-.27,2.72-2.37,4.61-5.25.28-7.73-1.72c-4.44-7.07-.7-17.54.94-25.05.22-1.06.44-2.12.67-3.22q3.76-17.46,8.18-21.23,2.66-.61,5.38.09Z"/>
  <path fill="#FFFFFF" d="M264.92,73.32q1.13.4,2.27.81c.26,1.34.52,2.67.79,4.05.74-.33,1.49-.67,2.25-1.01q8.07-3.44,12.49-3.28c2.86,1.4,3.89,2.47,5.23,5.34l-.16,3c.68-.34,1.36-.67,2.07-1.02.91-.43,1.81-.85,2.75-1.29.89-.43,1.79-.86,2.71-1.3,3.2-1.01,4.61-.95,7.67.41q1.73,1.55,2.79,4.15c.16,3.25-.1,6.44-.38,9.68-.13,1.73-.26,3.46-.39,5.19q-.1,1.14-.2,2.31-.23,1.81.92,2.85c2.78.14,5.55.16,8.34.18q2.65.4,4.43,1.81,1.05,1.74.83,4.8-1.09,2.88-2.81,3.96c-6.1,1.84-13.2,1.03-18.91-1.59-3.51-4.21-4.99-8.68-4.59-14.19.33-1.88.78-3.73,1.25-5.58l-2-.1c-.2.62-.41,1.24-.61,1.88q-4.49,13.19-9.42,17.62q-3.01.16-5.99-.31c-2-3.36-2.02-4.25-1.78-7.99.06-.94.11-1.87.17-2.84.07-.97.14-1.95.21-2.95.06-.99.12-1.97.18-2.99.15-2.44.31-4.87.48-7.3-3.98,4.84-6.39,9.97-8.9,15.68-.76,1.74-1.53,3.47-2.31,5.21-.33.76-.67,1.52-1.01,2.31-1.22,2.31-2.5,4.11-4.33,5.98-2.84.34-4.32.16-6.75-1.36-3.16-6.01.35-15.29,1.82-21.5.23-.99.45-1.98.69-3.01q3.13-13.46,5.81-17.12,1.74-.91,4.4-.46Z"/>
  <path fill="#FFFFFF" d="M137.64,90.87q2.47.63,3.98,2.83c2.67,6.42,1.69,13.79-.74,20.17-4.14,7.78-9.44,13.5-17.08,17.89-3.21.89-4.75.81-7.8-.47q-1.89-2.1-2.13-4.54.5-2.56,2.27-4.27c.75-.46,1.5-.92,2.27-1.39.75-.47,1.49-.95,2.26-1.43q2-1.03,4-.93c.32-.56.63-1.12.96-1.7.78-1.37,1.59-2.73,2.42-4.07,3.19-5.5,3.75-9.96,3.64-16.29q.29-2.59,1.72-4.34q1.72-1.09,4.24-1.46Z"/>
</svg>